/vscmnt/brussel_pixiu_data/_data_brussel/112/vsc11236/PredSimResults/SUBJ09mtu3D/worker9.mot
version=1
nRows=5
nColumns=50
inDegrees=yes
endheader
                time	         pelvis_tilt	         pelvis_list	     pelvis_rotation	           pelvis_tx	           pelvis_ty	           pelvis_tz	       hip_flexion_r	     hip_adduction_r	      hip_rotation_r	        knee_angle_r	       ankle_angle_r	         mtp_angle_r	       hip_flexion_l	     hip_adduction_l	      hip_rotation_l	        knee_angle_l	       ankle_angle_l	         mtp_angle_l	    lumbar_extension	      lumbar_bending	     lumbar_rotation	 ercspn_r/activation	 intobl_r/activation	 extobl_r/activation	    abd_r/activation	    add_r/activation	hamstrings_r/activation	bifemsh_r/activation	glut_max_r/activation	iliopsoas_r/activation	rect_fem_r/activation	  vasti_r/activation	gastroc_r/activation	 soleus_r/activation	tib_ant_r/activation	 ercspn_l/activation	 intobl_l/activation	 extobl_l/activation	    abd_l/activation	    add_l/activation	hamstrings_l/activation	bifemsh_l/activation	glut_max_l/activation	iliopsoas_l/activation	rect_fem_l/activation	  vasti_l/activation	gastroc_l/activation	 soleus_l/activation	tib_ant_l/activation	
          1.82713960	         -4.57207544	          1.19239388	         -8.25529035	          2.26565310	          0.99008052	          0.00422606	        -12.23740144	         -2.20327729	          1.59099904	        -10.50734220	          7.58733958	         32.08129138	         27.01854446	         -1.11107533	         -5.07518569	         -1.58442952	          6.10346803	          0.25057341	        -14.28692034	          0.94801729	          2.15344789	          0.01000057	          0.01000061	          0.02980927	          0.02519724	          0.01000067	          0.04321539	          0.15516288	          0.02092349	          0.01000160	          0.01000045	          0.01000032	          0.31095022	          0.23326826	          0.01001586	          0.01000061	          0.17003257	          0.05470907	          0.04297566	          0.10507023	          0.08630919	          0.19869620	          0.05097421	          0.11054093	          0.01212343	          0.01000029	          0.03583189	          0.01447169	          0.22915162	
          1.83932053	         -4.52817845	          1.25232303	         -8.22344607	          2.28487866	          0.98795505	          0.00397450	        -13.11682062	         -2.40745941	          1.16213885	        -10.97288811	          6.63403399	         33.63010054	         26.91165600	         -0.93642504	         -5.09785980	         -3.39406904	          5.62853275	          0.21624610	        -13.88656690	          0.53865310	          2.14754886	          0.01000057	          0.01202915	          0.02478342	          0.02094509	          0.01125967	          0.04758163	          0.12897929	          0.01741082	          0.01000067	          0.01000033	          0.01000081	          0.28740347	          0.21181463	          0.01000002	          0.01000034	          0.14133870	          0.04547663	          0.08979859	          0.08981181	          0.07813661	          0.16516611	          0.10864623	          0.09188655	          0.01007785	          0.01000013	          0.02978517	          0.01203031	          0.27056301	
          1.85150146	         -4.47914423	          1.31966717	         -8.15392683	          2.30425288	          0.98619397	          0.00368566	        -13.80698059	         -2.60651920	          0.69814976	        -11.77915427	          5.53757349	         35.16585435	         26.70912204	         -0.74706671	         -5.08565447	         -5.02746560	          4.99825763	          0.20532587	        -13.47392268	          0.11214599	          2.13327184	          0.01000280	          0.01000044	          0.02060116	          0.01741051	          0.01678624	          0.03955236	          0.10721411	          0.01447272	          0.01000087	          0.01000042	          0.01000331	          0.25630239	          0.18087496	          0.01000004	          0.01000049	          0.11748705	          0.03780221	          0.14804074	          0.09314088	          0.06495128	          0.13729373	          0.15290982	          0.07638021	          0.01000060	          0.01000009	          0.02475881	          0.01000017	          0.31295559	
          1.86368239	         -4.42936540	          1.38527693	         -8.04762569	          2.32342216	          0.98507885	          0.00336540	        -14.19209503	         -2.78802371	          0.20566535	        -13.07899277	          4.29671507	         36.59111170	         26.52767037	         -0.54877078	         -5.04036504	         -6.67718766	          4.40237061	          0.16522033	        -13.08907597	         -0.32386740	          2.10742031	          0.05544829	          0.01000027	          0.01712465	          0.01447241	          0.03386101	          0.03287781	          0.08912241	          0.01203042	          0.01000287	          0.01000077	          0.01000076	          0.21305007	          0.15035137	          0.01000006	          0.01000176	          0.09766049	          0.03142289	          0.19461460	          0.12572025	          0.05399052	          0.11412479	          0.18287765	          0.06349064	          0.01000186	          0.01000045	          0.02058074	          0.01000035	          0.33105176	
          1.87586332	         -4.37933202	          1.43851347	         -7.90453682	          2.34217988	          0.98472975	          0.00302353	        -14.18609462	         -2.94266376	         -0.31130404	        -15.00783959	          2.98330762	         37.68600399	         26.43824846	         -0.35972157	         -4.97547827	         -8.51671702	          4.14289948	          0.13229697	        -12.75425110	         -0.75788715	          2.06762534	          0.07353900	          0.01000023	          0.01423484	          0.01203013	          0.07016558	          0.02732962	          0.07408562	          0.01000030	          0.06694978	          0.01000037	          0.01000020	          0.17709671	          0.12497876	          0.01000011	          0.01001269	          0.08117976	          0.02612011	          0.23191815	          0.16919221	          0.04487960	          0.09486573	          0.19998734	          0.05277626	          0.01000142	          0.02408057	          0.01710793	          0.01392526	          0.32384646	
